<?xml version="1.0" standalone="no"?>
<!DOCTYPE svg PUBLIC "-//W3C//DTD SVG 20010904//EN"
 "http://www.w3.org/TR/2001/REC-SVG-20010904/DTD/svg10.dtd">
<svg version="1.0" xmlns="http://www.w3.org/2000/svg"
 width="512.000000pt" height="512.000000pt" viewBox="0 0 512.000000 512.000000"
 preserveAspectRatio="xMidYMid meet">

<g transform="translate(0.000000,512.000000) scale(0.100000,-0.100000)"
fill="#000000" stroke="none">
<path d="M2511 5083 c-8 -3 -22 -13 -32 -22 -17 -14 -19 -33 -19 -207 l0 -192
-34 -21 c-19 -12 -37 -28 -40 -37 -3 -9 -6 -84 -6 -168 l0 -151 -74 -12 c-355
-57 -674 -208 -923 -436 l-43 -39 -57 50 c-32 27 -69 62 -82 76 -28 30 -75 41
-111 28 -23 -8 -35 0 -139 99 -66 63 -122 109 -133 109 -29 0 -73 -29 -92 -60
-32 -55 -24 -70 96 -185 l112 -107 -3 -51 -3 -51 95 -91 94 -91 -24 -35 c-40
-57 -141 -269 -169 -354 -39 -120 -75 -271 -81 -348 l-6 -69 -186 3 -186 4
-24 -38 -24 -37 -193 0 c-188 0 -193 -1 -208 -22 -20 -29 -20 -107 0 -136 15
-21 20 -22 208 -22 l193 0 13 -27 c8 -16 26 -38 40 -50 24 -21 34 -22 198 -23
l172 0 0 -27 c0 -16 9 -65 20 -111 11 -45 22 -96 25 -112 11 -61 69 -219 116
-315 56 -114 107 -197 175 -287 26 -35 51 -68 56 -74 4 -6 -22 -48 -67 -104
-77 -96 -86 -120 -66 -173 8 -20 3 -33 -37 -82 -130 -162 -152 -191 -152 -205
0 -22 35 -72 62 -86 13 -8 37 -13 54 -14 28 0 42 13 131 123 l100 122 48 0
c45 1 51 4 89 50 23 27 55 65 73 84 l31 36 39 -31 c163 -129 421 -242 676
-295 l107 -22 0 -173 0 -173 30 -21 30 -21 0 -184 c0 -180 1 -184 24 -212 22
-25 31 -28 83 -28 39 1 67 7 86 19 l27 18 0 192 0 192 30 22 30 22 2 168 3
167 70 6 c87 8 279 50 383 85 157 52 377 170 490 262 l43 35 89 -87 89 -88 49
4 48 3 115 -107 c131 -124 149 -130 205 -74 25 25 34 43 34 68 0 29 -13 47
-108 141 l-109 109 5 49 5 49 -88 90 -88 89 35 43 c42 51 125 183 163 258 32
64 95 210 90 210 -2 0 7 28 20 63 13 35 26 83 30 108 4 24 13 71 21 104 7 33
14 72 14 88 l0 27 178 0 179 0 36 35 c21 20 37 42 37 50 0 13 31 15 194 15
190 0 195 1 210 22 20 29 20 107 0 136 -15 21 -20 22 -208 22 l-193 0 -24 37
-24 37 -186 -3 -186 -3 -22 119 c-13 65 -25 129 -27 143 -3 14 -14 54 -26 90
-12 36 -23 70 -24 75 -11 55 -121 276 -189 379 -44 67 -45 69 -26 83 41 28 64
73 62 121 -1 45 -1 46 109 157 73 74 110 119 110 134 0 54 -57 111 -110 111
-14 0 -62 -40 -133 -109 l-112 -109 -46 5 c-43 5 -50 2 -88 -32 l-41 -37 -73
57 c-256 200 -506 310 -834 367 l-73 12 0 147 c0 81 -4 159 -10 173 -5 14 -23
32 -40 41 l-30 16 0 193 c0 180 -1 194 -20 211 -20 18 -102 30 -129 18z m-619
-2257 c46 -29 103 -64 127 -76 l45 -22 -27 -20 c-67 -49 -92 -174 -50 -254 75
-146 242 -82 243 93 0 28 -4 63 -10 77 -11 31 -12 30 34 11 19 -8 59 -20 87
-26 l50 -11 -6 -41 c-34 -222 -151 -347 -325 -347 -115 0 -222 87 -282 230
-27 64 -32 91 -36 182 -5 117 6 184 39 230 11 15 22 28 24 28 3 0 42 -24 87
-54z m1435 15 c62 -91 54 -293 -17 -438 -37 -75 -128 -163 -187 -181 -192 -57
-376 89 -400 318 l-6 59 39 7 c22 4 61 15 88 26 45 17 48 17 42 1 -29 -73 -12
-166 39 -221 29 -32 39 -37 78 -37 138 0 187 233 68 326 l-31 24 78 43 c42 24
97 58 122 77 25 18 50 32 55 31 6 -1 20 -17 32 -35z m-2305 -261 l6 -35 -219
3 c-175 2 -219 5 -219 16 0 7 -3 27 -6 45 l-6 31 213 2 c236 3 221 7 231 -62z
m-482 -12 c0 -16 -20 -18 -219 -20 l-219 -3 -4 27 -4 28 215 2 c136 2 219 -1
223 -7 4 -5 8 -18 8 -27z m1120 -570 c50 -21 237 -135 246 -149 6 -10 -1 -8
-146 54 -91 38 -210 108 -210 124 0 8 61 -8 110 -29z m1908 2 c18 -35 9 -121
-20 -172 -45 -81 -131 -105 -403 -113 -149 -5 -177 -4 -161 7 86 60 361 235
401 256 62 31 124 52 150 49 11 -1 25 -13 33 -27z m-1997 -467 c13 -16 12 -17
-3 -4 -10 7 -18 15 -18 17 0 8 8 3 21 -13z"/>
</g>
</svg>
